<svg width="60" height="210"><line x1="30" y1="195" x2="30" y2="165" stroke="currentColor" stroke-width="1.5px"/><rect x="22.5" y="187.5" width="15" height="15" fill="rgb(0,144,188)" stroke="currentColor" stroke-width="1.5px" data-sugar="HexNAc" data-position="0-"/><line x1="30" y1="165" x2="30" y2="135" stroke="currentColor" stroke-width="1.5px"/><rect x="22.5" y="157.5" width="15" height="15" fill="rgb(0,144,188)" stroke="currentColor" stroke-width="1.5px" data-sugar="HexNAc" data-position="1-"/><line x1="30" y1="135" x2="15" y2="105" stroke="currentColor" stroke-width="1.5px"/><line x1="30" y1="135" x2="45" y2="105" stroke="currentColor" stroke-width="1.5px"/><circle r="7.5" cx="30" cy="135" fill="rgb(0,166,81)" stroke="currentColor" stroke-width="1.5px" data-sugar="Hex" data-position="2-"/><line x1="15" y1="105" x2="15" y2="75" stroke="currentColor" stroke-width="1.5px"/><circle r="7.5" cx="15" cy="105" fill="rgb(0,166,81)" stroke="currentColor" stroke-width="1.5px" data-sugar="Hex" data-position="3-0"/><line x1="15" y1="75" x2="15" y2="45" stroke="currentColor" stroke-width="1.5px"/><rect x="7.5" y="67.5" width="15" height="15" fill="rgb(0,144,188)" stroke="currentColor" stroke-width="1.5px" data-sugar="HexNAc" data-position="4-0"/><line x1="15" y1="45" x2="15" y2="15" stroke="currentColor" stroke-width="1.5px"/><circle r="7.5" cx="15" cy="45" fill="rgb(255,212,0)" stroke="currentColor" stroke-width="1.5px" data-sugar="Hex" data-position="5-0"/><polygon points="15 7.5 22.5 15 15 22.5 7.5 15" fill="rgb(165,67,153)" stroke="currentColor" stroke-width="1.5px" data-sugar="NonNAAc" data-position="6-0"/><line x1="45" y1="105" x2="45" y2="75" stroke="currentColor" stroke-width="1.5px"/><circle r="7.5" cx="45" cy="105" fill="rgb(0,166,81)" stroke="currentColor" stroke-width="1.5px" data-sugar="Hex" data-position="3-1"/><line x1="45" y1="75" x2="45" y2="45" stroke="currentColor" stroke-width="1.5px"/><rect x="37.5" y="67.5" width="15" height="15" fill="rgb(0,144,188)" stroke="currentColor" stroke-width="1.5px" data-sugar="HexNAc" data-position="4-1"/><circle r="7.5" cx="45" cy="45" fill="rgb(255,212,0)" stroke="currentColor" stroke-width="1.5px" data-sugar="Hex" data-position="5-1"/></svg><svg width="60" height="225"><line x1="30" y1="195" x2="30" y2="217.5" stroke="currentColor" stroke-width="1.5px"/><line x1="30" y1="195" x2="30" y2="165" stroke="currentColor" stroke-width="1.5px"/><rect x="22.5" y="187.5" width="15" height="15" fill="rgb(0,144,188)" stroke="currentColor" stroke-width="1.5px" data-sugar="HexNAc" data-position="0-"/><line x1="30" y1="165" x2="30" y2="135" stroke="currentColor" stroke-width="1.5px"/><rect x="22.5" y="157.5" width="15" height="15" fill="rgb(0,144,188)" stroke="currentColor" stroke-width="1.5px" data-sugar="HexNAc" data-position="1-"/><line x1="30" y1="135" x2="15" y2="105" stroke="currentColor" stroke-width="1.5px"/><line x1="30" y1="135" x2="45" y2="105" stroke="currentColor" stroke-width="1.5px"/><circle r="7.5" cx="30" cy="135" fill="rgb(0,166,81)" stroke="currentColor" stroke-width="1.5px" data-sugar="Hex" data-position="2-"/><line x1="15" y1="105" x2="15" y2="75" stroke="currentColor" stroke-width="1.5px"/><circle r="7.5" cx="15" cy="105" fill="rgb(0,166,81)" stroke="currentColor" stroke-width="1.5px" data-sugar="Hex" data-position="3-0"/><line x1="15" y1="75" x2="15" y2="45" stroke="currentColor" stroke-width="1.5px"/><rect x="7.5" y="67.5" width="15" height="15" fill="rgb(0,144,188)" stroke="currentColor" stroke-width="1.5px" data-sugar="HexNAc" data-position="4-0"/><line x1="15" y1="45" x2="15" y2="15" stroke="currentColor" stroke-width="1.5px"/><circle r="7.5" cx="15" cy="45" fill="rgb(255,212,0)" stroke="currentColor" stroke-width="1.5px" data-sugar="Hex" data-position="5-0"/><polygon points="15 7.5 22.5 15 15 22.5 7.5 15" fill="rgb(165,67,153)" stroke="currentColor" stroke-width="1.5px" data-sugar="NonNAAc" data-position="6-0"/><line x1="45" y1="105" x2="45" y2="75" stroke="currentColor" stroke-width="1.5px"/><circle r="7.5" cx="45" cy="105" fill="rgb(0,166,81)" stroke="currentColor" stroke-width="1.5px" data-sugar="Hex" data-position="3-1"/><line x1="45" y1="75" x2="45" y2="45" stroke="currentColor" stroke-width="1.5px"/><rect x="37.5" y="67.5" width="15" height="15" fill="rgb(0,144,188)" stroke="currentColor" stroke-width="1.5px" data-sugar="HexNAc" data-position="4-1"/><circle r="7.5" cx="45" cy="45" fill="rgb(255,212,0)" stroke="currentColor" stroke-width="1.5px" data-sugar="Hex" data-position="5-1"/></svg><svg width="60" height="225"><line x1="30" y1="195" x2="30" y2="217.5" stroke="currentColor" stroke-width="1.5px"/><path d="M 18.75 217.5 Q 22.5 225 30 217.5 Q 37.5 210 41.25 217.5" stroke="currentColor" stroke-width="1.5px" fill="none"/><line x1="30" y1="195" x2="30" y2="165" stroke="currentColor" stroke-width="1.5px"/><rect x="22.5" y="187.5" width="15" height="15" fill="rgb(0,144,188)" stroke="currentColor" stroke-width="1.5px" data-sugar="HexNAc" data-position="0-"/><line x1="30" y1="165" x2="30" y2="135" stroke="currentColor" stroke-width="1.5px"/><rect x="22.5" y="157.5" width="15" height="15" fill="rgb(0,144,188)" stroke="currentColor" stroke-width="1.5px" data-sugar="HexNAc" data-position="1-"/><line x1="30" y1="135" x2="15" y2="105" stroke="currentColor" stroke-width="1.5px"/><line x1="30" y1="135" x2="45" y2="105" stroke="currentColor" stroke-width="1.5px"/><circle r="7.5" cx="30" cy="135" fill="rgb(0,166,81)" stroke="currentColor" stroke-width="1.5px" data-sugar="Hex" data-position="2-"/><line x1="15" y1="105" x2="15" y2="75" stroke="currentColor" stroke-width="1.5px"/><circle r="7.5" cx="15" cy="105" fill="rgb(0,166,81)" stroke="currentColor" stroke-width="1.5px" data-sugar="Hex" data-position="3-0"/><line x1="15" y1="75" x2="15" y2="45" stroke="currentColor" stroke-width="1.5px"/><rect x="7.5" y="67.5" width="15" height="15" fill="rgb(0,144,188)" stroke="currentColor" stroke-width="1.5px" data-sugar="HexNAc" data-position="4-0"/><line x1="15" y1="45" x2="15" y2="15" stroke="currentColor" stroke-width="1.5px"/><circle r="7.5" cx="15" cy="45" fill="rgb(255,212,0)" stroke="currentColor" stroke-width="1.5px" data-sugar="Hex" data-position="5-0"/><polygon points="15 7.5 22.5 15 15 22.5 7.5 15" fill="rgb(165,67,153)" stroke="currentColor" stroke-width="1.5px" data-sugar="NonNAAc" data-position="6-0"/><line x1="45" y1="105" x2="45" y2="75" stroke="currentColor" stroke-width="1.5px"/><circle r="7.5" cx="45" cy="105" fill="rgb(0,166,81)" stroke="currentColor" stroke-width="1.5px" data-sugar="Hex" data-position="3-1"/><line x1="45" y1="75" x2="45" y2="45" stroke="currentColor" stroke-width="1.5px"/><rect x="37.5" y="67.5" width="15" height="15" fill="rgb(0,144,188)" stroke="currentColor" stroke-width="1.5px" data-sugar="HexNAc" data-position="4-1"/><circle r="7.5" cx="45" cy="45" fill="rgb(255,212,0)" stroke="currentColor" stroke-width="1.5px" data-sugar="Hex" data-position="5-1"/></svg><svg width="60" height="240"><line x1="30" y1="195" x2="30" y2="217.5" stroke="currentColor" stroke-width="1.5px"/><text x="30" y="232.5" fill="currentColor" font-size="15px" text-anchor="middle" dominant-baseline="ideographic">pep</text><line x1="30" y1="195" x2="30" y2="165" stroke="currentColor" stroke-width="1.5px"/><rect x="22.5" y="187.5" width="15" height="15" fill="rgb(0,144,188)" stroke="currentColor" stroke-width="1.5px" data-sugar="HexNAc" data-position="0-"/><line x1="30" y1="165" x2="30" y2="135" stroke="currentColor" stroke-width="1.5px"/><rect x="22.5" y="157.5" width="15" height="15" fill="rgb(0,144,188)" stroke="currentColor" stroke-width="1.5px" data-sugar="HexNAc" data-position="1-"/><line x1="30" y1="135" x2="15" y2="105" stroke="currentColor" stroke-width="1.5px"/><line x1="30" y1="135" x2="45" y2="105" stroke="currentColor" stroke-width="1.5px"/><circle r="7.5" cx="30" cy="135" fill="rgb(0,166,81)" stroke="currentColor" stroke-width="1.5px" data-sugar="Hex" data-position="2-"/><line x1="15" y1="105" x2="15" y2="75" stroke="currentColor" stroke-width="1.5px"/><circle r="7.5" cx="15" cy="105" fill="rgb(0,166,81)" stroke="currentColor" stroke-width="1.5px" data-sugar="Hex" data-position="3-0"/><line x1="15" y1="75" x2="15" y2="45" stroke="currentColor" stroke-width="1.5px"/><rect x="7.5" y="67.5" width="15" height="15" fill="rgb(0,144,188)" stroke="currentColor" stroke-width="1.5px" data-sugar="HexNAc" data-position="4-0"/><line x1="15" y1="45" x2="15" y2="15" stroke="currentColor" stroke-width="1.5px"/><circle r="7.5" cx="15" cy="45" fill="rgb(255,212,0)" stroke="currentColor" stroke-width="1.5px" data-sugar="Hex" data-position="5-0"/><polygon points="15 7.5 22.5 15 15 22.5 7.5 15" fill="rgb(165,67,153)" stroke="currentColor" stroke-width="1.5px" data-sugar="NonNAAc" data-position="6-0"/><line x1="45" y1="105" x2="45" y2="75" stroke="currentColor" stroke-width="1.5px"/><circle r="7.5" cx="45" cy="105" fill="rgb(0,166,81)" stroke="currentColor" stroke-width="1.5px" data-sugar="Hex" data-position="3-1"/><line x1="45" y1="75" x2="45" y2="45" stroke="currentColor" stroke-width="1.5px"/><rect x="37.5" y="67.5" width="15" height="15" fill="rgb(0,144,188)" stroke="currentColor" stroke-width="1.5px" data-sugar="HexNAc" data-position="4-1"/><circle r="7.5" cx="45" cy="45" fill="rgb(255,212,0)" stroke="currentColor" stroke-width="1.5px" data-sugar="Hex" data-position="5-1"/></svg><svg width="60" height="240"><line x1="30" y1="195" x2="30" y2="217.5" stroke="currentColor" stroke-width="1.5px"/><text x="30" y="232.5" fill="currentColor" font-size="15px" text-anchor="middle" dominant-baseline="ideographic">N</text><line x1="30" y1="195" x2="30" y2="165" stroke="currentColor" stroke-width="1.5px"/><rect x="22.5" y="187.5" width="15" height="15" fill="rgb(0,144,188)" stroke="currentColor" stroke-width="1.5px" data-sugar="HexNAc" data-position="0-"/><line x1="30" y1="165" x2="30" y2="135" stroke="currentColor" stroke-width="1.5px"/><rect x="22.5" y="157.5" width="15" height="15" fill="rgb(0,144,188)" stroke="currentColor" stroke-width="1.5px" data-sugar="HexNAc" data-position="1-"/><line x1="30" y1="135" x2="15" y2="105" stroke="currentColor" stroke-width="1.5px"/><line x1="30" y1="135" x2="45" y2="105" stroke="currentColor" stroke-width="1.5px"/><circle r="7.5" cx="30" cy="135" fill="rgb(0,166,81)" stroke="currentColor" stroke-width="1.5px" data-sugar="Hex" data-position="2-"/><line x1="15" y1="105" x2="15" y2="75" stroke="currentColor" stroke-width="1.5px"/><circle r="7.5" cx="15" cy="105" fill="rgb(0,166,81)" stroke="currentColor" stroke-width="1.5px" data-sugar="Hex" data-position="3-0"/><line x1="15" y1="75" x2="15" y2="45" stroke="currentColor" stroke-width="1.5px"/><rect x="7.5" y="67.5" width="15" height="15" fill="rgb(0,144,188)" stroke="currentColor" stroke-width="1.5px" data-sugar="HexNAc" data-position="4-0"/><line x1="15" y1="45" x2="15" y2="15" stroke="currentColor" stroke-width="1.5px"/><circle r="7.5" cx="15" cy="45" fill="rgb(255,212,0)" stroke="currentColor" stroke-width="1.5px" data-sugar="Hex" data-position="5-0"/><polygon points="15 7.5 22.5 15 15 22.5 7.5 15" fill="rgb(165,67,153)" stroke="currentColor" stroke-width="1.5px" data-sugar="NonNAAc" data-position="6-0"/><line x1="45" y1="105" x2="45" y2="75" stroke="currentColor" stroke-width="1.5px"/><circle r="7.5" cx="45" cy="105" fill="rgb(0,166,81)" stroke="currentColor" stroke-width="1.5px" data-sugar="Hex" data-position="3-1"/><line x1="45" y1="75" x2="45" y2="45" stroke="currentColor" stroke-width="1.5px"/><rect x="37.5" y="67.5" width="15" height="15" fill="rgb(0,144,188)" stroke="currentColor" stroke-width="1.5px" data-sugar="HexNAc" data-position="4-1"/><circle r="7.5" cx="45" cy="45" fill="rgb(255,212,0)" stroke="currentColor" stroke-width="1.5px" data-sugar="Hex" data-position="5-1"/></svg><svg width="60" height="240"><line x1="30" y1="195" x2="30" y2="217.5" stroke="currentColor" stroke-width="1.5px"/><text x="30" y="232.5" fill="currentColor" font-size="15px" text-anchor="middle" dominant-baseline="ideographic">Arg</text><line x1="30" y1="195" x2="30" y2="165" stroke="currentColor" stroke-width="1.5px"/><rect x="22.5" y="187.5" width="15" height="15" fill="rgb(0,144,188)" stroke="currentColor" stroke-width="1.5px" data-sugar="HexNAc" data-position="0-"/><line x1="30" y1="165" x2="30" y2="135" stroke="currentColor" stroke-width="1.5px"/><rect x="22.5" y="157.5" width="15" height="15" fill="rgb(0,144,188)" stroke="currentColor" stroke-width="1.5px" data-sugar="HexNAc" data-position="1-"/><line x1="30" y1="135" x2="15" y2="105" stroke="currentColor" stroke-width="1.5px"/><line x1="30" y1="135" x2="45" y2="105" stroke="currentColor" stroke-width="1.5px"/><circle r="7.5" cx="30" cy="135" fill="rgb(0,166,81)" stroke="currentColor" stroke-width="1.5px" data-sugar="Hex" data-position="2-"/><line x1="15" y1="105" x2="15" y2="75" stroke="currentColor" stroke-width="1.5px"/><circle r="7.5" cx="15" cy="105" fill="rgb(0,166,81)" stroke="currentColor" stroke-width="1.5px" data-sugar="Hex" data-position="3-0"/><line x1="15" y1="75" x2="15" y2="45" stroke="currentColor" stroke-width="1.5px"/><rect x="7.5" y="67.5" width="15" height="15" fill="rgb(0,144,188)" stroke="currentColor" stroke-width="1.5px" data-sugar="HexNAc" data-position="4-0"/><line x1="15" y1="45" x2="15" y2="15" stroke="currentColor" stroke-width="1.5px"/><circle r="7.5" cx="15" cy="45" fill="rgb(255,212,0)" stroke="currentColor" stroke-width="1.5px" data-sugar="Hex" data-position="5-0"/><polygon points="15 7.5 22.5 15 15 22.5 7.5 15" fill="rgb(165,67,153)" stroke="currentColor" stroke-width="1.5px" data-sugar="NonNAAc" data-position="6-0"/><line x1="45" y1="105" x2="45" y2="75" stroke="currentColor" stroke-width="1.5px"/><circle r="7.5" cx="45" cy="105" fill="rgb(0,166,81)" stroke="currentColor" stroke-width="1.5px" data-sugar="Hex" data-position="3-1"/><line x1="45" y1="75" x2="45" y2="45" stroke="currentColor" stroke-width="1.5px"/><rect x="37.5" y="67.5" width="15" height="15" fill="rgb(0,144,188)" stroke="currentColor" stroke-width="1.5px" data-sugar="HexNAc" data-position="4-1"/><circle r="7.5" cx="45" cy="45" fill="rgb(255,212,0)" stroke="currentColor" stroke-width="1.5px" data-sugar="Hex" data-position="5-1"/></svg>